<?xml version="1.0" encoding="iso-8859-1"?>
<!-- Uploaded to: SVG Repo, www.svgrepo.com, Generator: SVG Repo Mixer Tools -->
<svg height="800px" width="800px" version="1.1" id="Layer_1" xmlns="http://www.w3.org/2000/svg" xmlns:xlink="http://www.w3.org/1999/xlink" 
	 viewBox="0 0 512 512" xml:space="preserve">
<path style="fill:#F3D49D;" d="M451.177,256.355L245.792,122.63l-63.871-31.174l-93.589-22.51L0,251.31l47.208,40.632
	l159.959,137.679l57.158,37.894c16.164,10.445,37.734,5.808,48.179-10.356c10.445-16.164,5.808-37.734-10.356-48.178
	c0,0,5.642,3.546,11.854,7.659c4.921,3.258,11.059,4.992,17.404,5.145c12.859,0.629,25.695-5.413,33.184-17.004l0,0
	c7.539-11.667,7.728-25.961,1.752-37.464c15.799,8.351,35.634,3.386,45.516-11.906l0,0c10.444-16.163,5.809-37.73-10.351-48.176
	l11.848,7.657c16.164,10.445,37.734,5.808,48.179-10.356l0,0C471.976,288.37,467.34,266.8,451.177,256.355z"/>
<path style="fill:#EEBF70;" d="M45.091,158.219L0,251.31l47.208,40.632l159.959,137.679l57.158,37.894
	c16.164,10.445,37.734,5.808,48.179-10.356c10.445-16.164,5.808-37.734-10.356-48.178c0,0,5.642,3.546,11.854,7.659
	c4.921,3.258,11.059,4.992,17.404,5.145c12.859,0.629,25.695-5.413,33.184-17.004c7.539-11.667,7.728-25.961,1.752-37.464l0,0
	L120.231,196.484L45.091,158.219z"/>
<g>
	<path style="fill:#A67420;" d="M215.539,352.459L215.539,352.459c-16.164-10.445-37.734-5.808-48.179,10.356
		c10.445-16.164,5.808-37.734-10.356-48.178l0,0c-16.164-10.445-37.734-5.808-48.179,10.356
		c10.445-16.164,5.808-37.734-10.356-48.178l0,0c-16.164-10.445-37.734-5.808-48.178,10.356l-35.724,55.287
		c-10.445,16.164-5.808,37.734,10.356,48.178l0,0c16.164,10.445,37.734,5.808,48.178-10.356
		c-10.445,16.164-5.808,37.734,10.356,48.178c16.164,10.445,37.734,5.808,48.178-10.356c-10.445,16.164-5.808,37.734,10.356,48.178
		c16.164,10.445,37.734,5.808,48.179-10.356l35.724-55.287C236.339,384.473,231.702,362.904,215.539,352.459z"/>
	<path style="fill:#A67420;" d="M245.792,122.63l-46.631,70.773c-10.445,16.164-32.014,20.801-48.178,10.356l0,0
		c-16.164-10.445-20.801-32.014-10.356-48.178l69.875-108.506l254.95-8.171L512,195.78l-71.987,53.306L245.792,122.63z"/>
</g>
<g>
	<path style="fill:#7A5007;" d="M215.539,352.459L215.539,352.459c-16.164-10.445-37.734-5.808-48.179,10.356
		c10.445-16.164,5.808-37.734-10.356-48.178l-73.547,113.82c16.164,10.445,37.734,5.808,48.178-10.356
		c-10.445,16.164-5.808,37.734,10.356,48.178c16.164,10.445,37.734,5.808,48.179-10.356l35.724-55.287
		C236.339,384.473,231.702,362.904,215.539,352.459z"/>
	<polygon style="fill:#7A5007;" points="315.727,168.164 440.013,249.087 512,195.78 485.208,105.484 	"/>
</g>
</svg>