<svg width="104" height="18" fill="none" xmlns="http://www.w3.org/2000/svg"><path d="M5.462 12.357c1.911 0 3.393-1.494 3.393-3.707V.042h2.07v13.953H8.873v-1.294c-.928.977-2.209 1.533-3.648 1.533C2.27 14.234 0 12.06 0 8.774V.046h2.07v8.607c0 2.25 1.458 3.704 3.392 3.704ZM12.46.042h1.992v5.08A4.938 4.938 0 0 1 18.02 3.61c2.955 0 5.284 2.37 5.284 5.322 0 2.93-2.325 5.303-5.284 5.303-1.4 0-2.681-.579-3.59-1.514v1.275h-1.973V.042h.003Zm5.42 12.417c1.892 0 3.451-1.576 3.451-3.528 0-1.974-1.559-3.527-3.45-3.527-1.912 0-3.47 1.556-3.47 3.527 0 1.952 1.539 3.528 3.47 3.528Zm11.377-8.83c2.898 0 5.03 2.252 5.03 5.283v.657h-8.183c.275 1.654 1.637 2.89 3.331 2.89 1.164 0 2.15-.477 2.898-1.494l1.439 1.075c-1.006 1.354-2.503 2.171-4.337 2.171-3.017 0-5.342-2.272-5.342-5.303 0-2.867 2.228-5.28 5.164-5.28Zm-3.114 4.345h6.132c-.337-1.557-1.578-2.593-3.056-2.593-1.478.003-2.72 1.04-3.076 2.592Zm13.486-2.351c-1.3 0-2.248 1.017-2.248 2.592v5.78h-1.992V3.828h1.973v1.256c.491-.818 1.3-1.334 2.406-1.334h.688v1.873h-.827Zm6.228 8.369V.039h8.38v1.834h-6.31V6.1h6.112v1.815h-6.112v6.08h-2.07v-.003Zm13.78-8.369c-.657 0-1.197.232-1.617.696-.42.465-.63 1.095-.63 1.893v5.78h-1.993V3.825h1.973V5.08a2.81 2.81 0 0 1 .977-.977c.4-.239.876-.36 1.429-.36h.689v1.873h-.828v.007Zm1.183 3.289a5.41 5.41 0 0 1 1.478-3.717 5.025 5.025 0 0 1 3.687-1.566 5.06 5.06 0 0 1 2.011.399 4.762 4.762 0 0 1 1.598 1.105 5.06 5.06 0 0 1 1.045 1.673 5.79 5.79 0 0 1 .375 2.102v.66h-8.182a3.422 3.422 0 0 0 1.135 2.064c.294.258.63.46 1.006.608a3.24 3.24 0 0 0 1.193.219c1.197 0 2.164-.497 2.898-1.494l1.439 1.075a5.42 5.42 0 0 1-1.853 1.596c-.738.385-1.565.578-2.484.578-.75 0-1.449-.134-2.099-.399a5.098 5.098 0 0 1-1.694-1.114 5.28 5.28 0 0 1-1.552-3.789Zm5.126-3.531c-.75 0-1.403.235-1.963.706s-.931 1.099-1.112 1.883h6.131c-.171-.784-.537-1.412-1.093-1.883a2.97 2.97 0 0 0-1.963-.706Zm7.422-2.968c-.343 0-.627-.118-.857-.35-.23-.232-.41-.52-.41-.866 0-.334.18-.615.41-.847.23-.232.514-.35.857-.35.33 0 .605.118.828.35.223.232.336.516.336.847a1.2 1.2 0 0 1-.336.866c-.223.232-.501.35-.828.35Zm.987 11.579h-1.993V3.825h1.993v10.167Zm12.24.32c0 1.145-.333 2.044-.996 2.7-.663.658-1.575.988-2.73.988h-2.522v-1.713h2.09c1.432 0 2.15-.713 2.15-2.131V12.66c-.46.452-.987.805-1.578 1.056a4.831 4.831 0 0 1-1.912.38 5.13 5.13 0 0 1-2.05-.409 5.277 5.277 0 0 1-1.656-1.115 5.145 5.145 0 0 1-1.112-1.664 5.282 5.282 0 0 1-.404-2.072 5.172 5.172 0 0 1 3.182-4.813 5.15 5.15 0 0 1 2.04-.408c.696 0 1.342.13 1.934.389A5.079 5.079 0 0 1 84.61 5.09V3.835h1.993v10.477h-.007ZM77.841 8.83c0 .49.087.951.265 1.376a3.4 3.4 0 0 0 .73 1.105c.308.314.667.56 1.075.74.407.179.847.267 1.322.267.475 0 .919-.088 1.332-.268.415-.18.773-.428 1.074-.748.3-.32.544-.69.721-1.115.178-.425.266-.876.266-1.357a3.427 3.427 0 0 0-.996-2.442 3.51 3.51 0 0 0-1.074-.739 3.235 3.235 0 0 0-1.323-.268c-.475 0-.915.088-1.323.268a3.464 3.464 0 0 0-1.805 1.834c-.177.422-.264.87-.264 1.347Zm12.447 5.162h-1.992V.039h1.992v4.904c.356-.425.79-.755 1.3-.987a4.017 4.017 0 0 1 1.675-.35c.566 0 1.084.098 1.56.297.471.2.879.474 1.222.827.342.353.604.765.789 1.236.184.47.275.98.275 1.524v6.499h-1.993V7.895c0-.745-.216-1.344-.65-1.795-.433-.45-1.005-.677-1.714-.677-.724 0-1.316.233-1.775.697-.46.464-.689 1.075-.689 1.834v6.038ZM104 5.6V3.825h-2.306V.837h-1.992v2.991h-1.71v1.775h1.71v6.199c0 .637.204 1.163.611 1.575.408.412 1 .618 1.776.618H104V12.22h-1.323c-.304 0-.543-.072-.721-.219-.178-.147-.265-.36-.265-.637V5.6H104Z" fill="#000"/></svg>